<?xml version='1.0' encoding='iso-8859-1'?>
<svg version="1.1" xmlns="http://www.w3.org/2000/svg" viewBox="0 0 44 44" xmlns:xlink="http://www.w3.org/1999/xlink" enable-background="new 0 0 44 44">
  <g>
    <g>
      <g>
        <path d="m22.002,0c-12.151,0-22.002,9.851-22.002,22s9.851,22 22.002,22c12.15,0 21.998-9.851 21.998-22s-9.848-22-21.998-22zm0,41.998c-11.048,0-20.005-8.951-20.005-19.998 2.22045e-16-11.047 8.957-19.998 20.005-19.998 11.043,0 20,8.951 20,19.998 7.10543e-15,11.047-8.957,19.998-20,19.998zm8.472-11.152v-2.409c0-1.546-0.35-2.832-1.046-3.856-0.7-1.025-1.839-1.737-3.422-2.137 1.432-0.492 2.539-1.273 3.324-2.348 0.785-1.07 1.176-2.286 1.176-3.646 0-2.307-0.733-4.065-2.197-5.265-1.465-1.2-3.568-1.803-6.312-1.803h-8.663v25.576h2.092v-11.566h7.17c1.818,0 3.235,0.456 4.248,1.363 1.014,0.911 1.517,2.148 1.517,3.719v2.34c0,0.817 0.09,1.61 0.265,2.372 0.175,0.761 0.48,1.351 0.916,1.773h2.145v-0.423c-0.436-0.398-0.745-0.911-0.933-1.546-0.187-0.631-0.28-1.346-0.28-2.144zm-8.737-9.244h-6.312v-10.425h6.571c2.149,0 3.748,0.456 4.811,1.363 1.061,0.907 1.591,2.205 1.591,3.894 0,1.583-0.533,2.836-1.6,3.768-1.065,0.932-2.754,1.4-5.061,1.4z"/>
      </g>
    </g>
  </g>
</svg>
