<?xml version="1.0" encoding="iso-8859-1"?>
<!-- Generator: Adobe Illustrator 16.0.0, SVG Export Plug-In . SVG Version: 6.00 Build 0)  -->
<!DOCTYPE svg PUBLIC "-//W3C//DTD SVG 1.1//EN" "http://www.w3.org/Graphics/SVG/1.1/DTD/svg11.dtd">
<svg version="1.1" id="Capa_1" xmlns="http://www.w3.org/2000/svg" xmlns:xlink="http://www.w3.org/1999/xlink" x="0px" y="0px"
	 width="529.801px" height="529.801px" viewBox="0 0 529.801 529.801" style="enable-background:new 0 0 529.801 529.801;"
	 xml:space="preserve">
<g>
	<g>
		<path d="M396.149,121c-14-72.8-65.898-121-131.299-121c-65.4,0-117.4,48.3-131.3,121c-0.4,0.1-0.9,0.2-1.5,0.3
			c-22,5.5-33.6,32.4-26.3,61.2c4.9,19.7,17.8,35.1,33,40.2c17.8,58.8,63.8,120,126,120c62.2,0,108.2-61,126.001-120
			c15.199-5.2,28.1-20.5,33-40.2c7.199-28.8-4.4-55.6-26.301-61C397.149,121.1,396.649,121,396.149,121z M404.45,177.5
			c-4,16.1-14.6,25.6-23,26.8l-6.6,0.9l-1.801,6.4c-15,55.099-57,110.8-108.2,110.8c-51.2,0-93.2-55.801-108.2-110.8l-1.8-6.4
			l-6.6-0.9c-8.4-1.1-18.9-10.8-23-26.8c-4.3-17.2,1.1-33.9,11.8-36.6c0.7-0.2,1.5-0.2,2.4-0.2c0.6,0,1.1,0,1.8,0.1l9.5,0.9l1.5-9.4
			c1.2-8.1,2.9-15.8,5.2-23.2c3.2-1,6.9-1.9,11-2.9c4.6-1.3,9.9-2.4,15.7-3.6c5.7-1.5,12-2.4,18.5-3.5c6.5-1.2,13.4-1.8,20.4-2.8
			c7.1-0.6,14.3-1.5,21.7-1.7c7.4-0.7,14.9-0.4,22.399-0.7c7.5,0.2,15,0.1,22.4,0.8c7.4,0.2,14.6,1.1,21.701,1.7
			c6.898,1,13.898,1.7,20.398,2.8c6.5,1.1,12.801,2,18.5,3.5c5.801,1.1,11.201,2.2,15.9,3.6c2.201,0.7,4.5,1.1,6.5,1.7
			c2.4,7.7,4.1,15.8,5.5,24.3l1.5,9.4l9.5-0.9c1.5-0.1,2.9-0.1,4.1,0.2C403.251,143.4,408.649,160.2,404.45,177.5z M264.85,20.2
			c43,0,79.2,25.2,98.901,65.9c-1.701-1.2-3.4-2.4-5.301-3.7c-5.4-3.9-11.6-7.2-18.5-10.5s-14.301-6-22.1-8.6
			c-8-2.1-16.201-4.5-24.9-5.4c-8.5-1.6-17.4-1.6-26.2-2c-8.8,0.4-17.6,0.4-26.2,2.1c-8.6,1-16.9,3.2-24.9,5.4
			c-7.8,2.6-15.3,5.2-22.2,8.5s-13.1,6.6-18.5,10.5c-2.7,1.9-5.3,3.6-7.7,5.4c-1.3,1.1-2.6,2.2-3.8,3.4
			C182.85,47.6,220.15,20.2,264.85,20.2z"/>
		<path d="M385.05,295.699c-13,22.201-28,40.801-47.9,51c-41.1,21.101-71.699,38.102-71.699,38.102l-0.1-0.102v-0.398l-0.4,0.199
			l-0.4-0.199v0.398l-0.1,0.102c0,0-30.6-17.001-71.7-38.102c-19.9-10.199-34.9-28.899-47.9-51c-61,24.801-103.4,81.5-103.4,131.201
			c0,52.299,0,102.9,0,102.9h223h0.9h223c0,0,0-50.602,0-102.9C488.251,377.1,445.851,320.3,385.05,295.699z"/>
	</g>
</g>
<g>
</g>
<g>
</g>
<g>
</g>
<g>
</g>
<g>
</g>
<g>
</g>
<g>
</g>
<g>
</g>
<g>
</g>
<g>
</g>
<g>
</g>
<g>
</g>
<g>
</g>
<g>
</g>
<g>
</g>
</svg>
