<?xml version="1.0" encoding="iso-8859-1"?>
<!-- Generator: Adobe Illustrator 16.0.0, SVG Export Plug-In . SVG Version: 6.00 Build 0)  -->
<!DOCTYPE svg PUBLIC "-//W3C//DTD SVG 1.1//EN" "http://www.w3.org/Graphics/SVG/1.1/DTD/svg11.dtd">
<svg version="1.1" id="Capa_1" xmlns="http://www.w3.org/2000/svg" xmlns:xlink="http://www.w3.org/1999/xlink" x="0px" y="0px"
	 width="530px" height="530px" viewBox="0 0 530 530" style="enable-background:new 0 0 530 530;" xml:space="preserve">
<g>
	<g>
		<path d="M261.45,0c-77.5,0-141.2,62.7-147.9,142.7c-7.6,11.6-10.3,28.2-6,45.5c1.8,6.9,4.5,13.2,8,18.8
			c8.2,68.8,34.5,93.4,70.8,102.2c21.1,22.1,47.8,37,78.3,37c30.799,0,57.7-15.3,78.899-37.9c9.602-2.8,18.4-6.899,26.201-12.899
			c0.6-0.601,1.199-1,1.9-1.4c16.898-14,29.199-37.8,34.898-77.9c6.701-7.2,12.201-16.7,14.9-27.7c5.5-21.8-0.1-42.3-12.799-53.3
			C398.35,58.7,336.35,0,261.45,0z M264.35,326.2c-14.7,0-28.6-4.8-41.5-12.8c-21.1-13.301-38.9-35.5-51.4-60.5
			c0.9-4.6,1.8-11.3,2.7-20.3c4.5-45.5,15-82.5,26.5-111.3c8.3-0.9,16.9-3.3,25-7c2.8,2.4,5.6,4.9,8.7,7.3
			c16.6,12.3,36,20.5,55.5,24.2c23,4.4,59,63.2,80.6,73.5c-10.799,37.7-34.299,75.3-64.699,94.2
			C292.949,321.5,279.05,326.2,264.35,326.2z M146.05,208.8c-7.5-2.9-15.8-11.7-19.2-25.4c-4.1-16.3,0.7-32.1,10.5-35.7
			C137.55,168.2,141.25,189,146.05,208.8z M401.949,183.3c-2.299,9.1-6.6,15.9-11.5,20.5c4.301-14,4.5-34.2,1.701-55.8
			C401.35,151.9,405.949,167.4,401.949,183.3z"/>
		<path d="M378.049,309.4c-12.299,20.899-26.398,38.5-45.199,48.1c-38.699,19.8-67.5,35.9-67.5,35.9l-0.1-0.101V392.9l-0.4,0.199
			l-0.4-0.199v0.399l-0.1,0.101c0,0-28.7-16-67.5-35.9c-18.8-9.6-32.9-27.2-45.2-48.1c-57.4,23.3-97.3,76.8-97.3,123.6
			c0,49.2,0,97,0,97h210.2h0.8H475.65c0,0,0-47.8,0-97C475.35,386.3,435.35,332.8,378.049,309.4z"/>
	</g>
</g>
<g>
</g>
<g>
</g>
<g>
</g>
<g>
</g>
<g>
</g>
<g>
</g>
<g>
</g>
<g>
</g>
<g>
</g>
<g>
</g>
<g>
</g>
<g>
</g>
<g>
</g>
<g>
</g>
<g>
</g>
</svg>
