<?xml version="1.0" encoding="iso-8859-1"?>
<!-- Generator: Adobe Illustrator 16.0.0, SVG Export Plug-In . SVG Version: 6.00 Build 0)  -->
<!DOCTYPE svg PUBLIC "-//W3C//DTD SVG 1.1//EN" "http://www.w3.org/Graphics/SVG/1.1/DTD/svg11.dtd">
<svg version="1.1" id="Capa_1" xmlns="http://www.w3.org/2000/svg" xmlns:xlink="http://www.w3.org/1999/xlink" x="0px" y="0px"
	 width="529.9px" height="529.9px" viewBox="0 0 529.9 529.9" style="enable-background:new 0 0 529.9 529.9;" xml:space="preserve"
	>
<g>
	<path d="M146.75,230.3c16.8,54.601,60,111.2,118.3,111.2c58.301,0,101.5-56.5,118.301-111.2c14.399-4.9,26.399-19.2,31.1-37.5
		c3.8-15,2.2-30.2-4.7-41.5c-4.8-8.1-12-13.6-20.3-15.7c-0.3-0.1-0.8-0.2-1.1-0.2c-11.801-60-51.601-101.9-103.5-110.5
		c0.3-1.4,0.5-2.9,0.5-4.5c0-11.2-9.2-20.4-20.4-20.4s-20.4,9.2-20.4,20.4c0,1.5,0.2,2.9,0.5,4.5c-51.8,8.5-91.7,50.5-103.5,110.5
		c-0.3,0.1-0.8,0.2-1.1,0.2c-8.4,2.1-15.4,7.5-20.3,15.7c-6.8,11.3-8.5,26.5-4.7,41.5C120.25,211.2,132.35,225.4,146.75,230.3z
		 M137.15,161.3c1.5-2.5,4.1-5.7,8.2-6.8c0.7-0.1,1.3-0.2,2.2-0.2c0.5,0,1.1,0,1.6,0.1l9.2,0.9l0.7-4.3
		c100-66.2,200.8-7.7,212.7,0.1v4.5l8.3-1.2c1.4-0.1,3.301-0.1,4.4,0.1c4.1,1,7,4.3,8.5,6.8c4,6.9,5.1,16.8,2.6,26.7
		c-3.699,14.7-13.399,23.4-21.199,24.5l-6.301,0.9l-1.6,6.2c-14.1,50.9-53.2,102.5-101.1,102.5c-47.9,0-87-51.6-101.101-102.5
		l-1.7-6.2l-6.3-0.9c-7.7-1-17.6-9.8-21.3-24.5C132.05,178.2,132.95,168.3,137.15,161.3z M377.95,310c-12.2,20.8-26.4,38.4-45,48
		c-38.5,19.7-67.4,35.8-67.4,35.8l-0.1-0.1v-0.4l-0.4,0.2l-0.399-0.2v0.4l-0.1,0.1c0,0-28.8-16-67.4-35.8c-18.8-9.6-32.8-27.2-45-48
		c-57.3,23.2-97.2,76.7-97.2,123.2c0,49.2,0,96.7,0,96.7h209.7h0.8h209.5c0,0,0-47.7,0-96.7C474.95,386.6,435.05,333.2,377.95,310z"
		/>
</g>
<g>
</g>
<g>
</g>
<g>
</g>
<g>
</g>
<g>
</g>
<g>
</g>
<g>
</g>
<g>
</g>
<g>
</g>
<g>
</g>
<g>
</g>
<g>
</g>
<g>
</g>
<g>
</g>
<g>
</g>
</svg>
