<?xml version="1.0" encoding="iso-8859-1"?>
<!-- Generator: Adobe Illustrator 16.0.0, SVG Export Plug-In . SVG Version: 6.00 Build 0)  -->
<!DOCTYPE svg PUBLIC "-//W3C//DTD SVG 1.1//EN" "http://www.w3.org/Graphics/SVG/1.1/DTD/svg11.dtd">
<svg version="1.1" id="Capa_1" xmlns="http://www.w3.org/2000/svg" xmlns:xlink="http://www.w3.org/1999/xlink" x="0px" y="0px"
	 width="612px" height="612px" viewBox="0 0 612 612" style="enable-background:new 0 0 612 612;" xml:space="preserve">
<g>
	<g>
		<g id="group-23svg">
			<path id="path-1_15_" d="M483.008,411.808c-20.475,0-43.379-16.272-43.379-38.059v-36.11h-34.85
				c-20.947,0-37.99-17.313-37.99-38.589s17.043-38.589,37.99-38.589h34.85v-28.042c0-21.757,22.904-38.029,43.379-38.029
				s43.379,16.272,43.379,38.029v28.042h19.656c20.928,0,37.973,17.313,37.973,38.589s-17.045,38.589-37.973,38.589h-19.656v36.11
				C526.387,395.535,503.482,411.808,483.008,411.808z M404.779,289.4c-4.838,0-9.07,4.512-9.07,9.65c0,5.138,4.232,9.64,9.07,9.64
				h45.201c7.982,0,18.568,6.479,18.568,14.479v50.58c0,3.172,7.662,9.12,14.459,9.12c6.807,0,14.459-5.948,14.459-9.12v-50.58
				c0-8.001,2.373-14.479,10.354-14.479h38.223c4.82,0,9.053-4.502,9.053-9.64c0-5.138-4.232-9.65-9.053-9.65H507.82
				c-7.98,0-10.354-6.478-10.354-14.469v-42.512c0-3.152-7.652-9.09-14.459-9.09c-6.797,0-14.459,5.938-14.459,9.09v42.512
				c0,7.991-10.586,14.469-18.568,14.469H404.779z"/>
			<path id="path-2_10_" d="M229.304,612c-166.395,0-201.32-71.75-201.32-131.941c0-48.769,25.266-130.033,192.577-132.655
				c-2.545-5.341-4.454-10.874-5.717-16.6c-97.72-0.396-165.874-68.299-165.874-165.402C48.97,60.288,115.38,0,231.155,0H357.68
				c22.393,0,38.029,13.881,38.029,33.759c0,18.528-13.584,31.851-33.557,33.576c14.787,26.567,21.768,51.814,21.768,77.977
				c0,53.02-15.715,99.446-43.111,127.45c-4.299,4.82-22.133,22.268-46.926,36.67c-4.232,3.307-5.071,4.599-5.206,4.83
				c0.106,4.617,22.007,18.527,31.358,24.466c10.393,6.584,23.357,14.788,35.754,24.813c0.752,0.607,1.533,1.243,2.285,1.908
				c33.625,28.062,50.117,61.802,50.117,102.906C408.191,533.878,377.152,612,229.304,612z M234.288,376.217h-5.331
				c-114.166,0-172.054,34.955-172.054,103.812c0,25.479,0,103.013,172.4,103.013c100.911,0,149.969-37.509,149.969-114.696
				c0-32.429-12.725-58.147-40.035-80.946l-1.6-1.33c-11.125-9.004-23.301-16.696-33.076-22.895
				c-24.986-15.868-44.7-28.39-44.7-48.817c0-14.151,8.483-21.824,17.169-28.466c0.511-0.386,1.041-0.742,1.581-1.051
				c24.746-14.229,40.575-31.301,40.729-31.464C330.475,242.039,355,210.169,355,145.312c0-27.618-9.477-53.511-30.732-83.973
				c-3.096-4.415-3.471-10.189-0.975-14.971c2.498-4.781,7.443-7.779,12.822-7.779h21.564c9.109,0,9.109-3.644,9.109-4.83
				c0-1.195,0-4.82-9.109-4.82H231.155c-98.829,0-153.265,48.46-153.265,136.463c0,81.621,55.381,136.462,137.803,136.462
				c3.576,0,6.912,0.02,10.305-0.337c4.04-0.405,7.953,0.858,10.971,3.48c3.017,2.632,4.81,6.382,4.964,10.383
				c0.492,13.611,6.054,25.507,16.957,36.352c4.222,4.203,5.447,10.565,3.075,16.031s-7.905,8.897-13.814,8.666
				C243.514,376.266,238.867,376.217,234.288,376.217z M227.531,553.756c-88.909,0-132.135-24.1-132.135-73.669
				c0-49.288,44.354-74.275,131.836-74.275c30.818,0,66.708,4.223,80.705,6.044c2.901,0.386,5.629,1.63,7.809,3.596
				c17.082,15.366,25.043,32.757,25.043,54.707C340.789,527.188,304.794,553.756,227.531,553.756z M227.232,434.751
				c-102.916,0-102.916,34.125-102.916,45.336c0,12.233,0,44.729,103.215,44.729c84.34,0,84.34-32.892,84.34-54.658
				c0-12.483-3.51-21.266-12.321-30.183C283.915,438.038,253.443,434.751,227.232,434.751z M215.847,265.493
				c-45.79,0-99.272-25.401-99.272-96.978c0-63.566,37.586-95.802,111.736-95.802c41.625,0,88.013,34.106,88.013,83.038
				c0,58.003-25.411,75.355-47.824,90.664c-2.95,2.024-6.025,4.193-9.109,6.468c-0.54,0.415-1.128,0.781-1.735,1.109
				C243.484,261.627,229.41,265.493,215.847,265.493z M228.312,101.653c-72.984,0-82.817,33.798-82.817,66.863
				c0,63.132,53.849,68.039,70.353,68.039c8.483,0,17.641-2.555,27.242-7.587c3.065-2.256,6.131-4.415,9.081-6.439
				c20.465-13.968,35.234-24.051,35.234-66.776C287.404,124.789,256.209,101.653,228.312,101.653z"/>
		</g>
	</g>
	<g>
	</g>
	<g>
	</g>
	<g>
	</g>
	<g>
	</g>
	<g>
	</g>
	<g>
	</g>
	<g>
	</g>
	<g>
	</g>
	<g>
	</g>
	<g>
	</g>
	<g>
	</g>
	<g>
	</g>
	<g>
	</g>
	<g>
	</g>
	<g>
	</g>
</g>
<g>
</g>
<g>
</g>
<g>
</g>
<g>
</g>
<g>
</g>
<g>
</g>
<g>
</g>
<g>
</g>
<g>
</g>
<g>
</g>
<g>
</g>
<g>
</g>
<g>
</g>
<g>
</g>
<g>
</g>
</svg>
